{
    "asset": {
        "copyright": "2020 (c) Adobe Inc.",
        "generator": "Adobe Dimension - 5769982f30ff13dfba89076b81240843d8e6af81",
        "version": "2.0"
    },
    "accessors": [
        {
            "bufferView": 0,
            "componentType": 5126,
            "count": 13184,
            "type": "VEC3",
            "max": [
                0.015770770609378816,
                0.09980529546737671,
                0.026869969442486764
            ],
            "min": [
                -0.05065001919865608,
                0.0,
                -0.03955080732703209
            ]
        },
        {
            "bufferView": 1,
            "componentType": 5126,
            "count": 13184,
            "type": "VEC3"
        },
        {
            "bufferView": 2,
            "componentType": 5126,
            "count": 13184,
            "type": "VEC2"
        },
        {
            "bufferView": 3,
            "componentType": 5125,
            "count": 19776,
            "type": "SCALAR",
            "max": [
                13183.0
            ],
            "min": [
                0.0
            ]
        },
        {
            "bufferView": 4,
            "componentType": 5126,
            "count": 370292,
            "type": "VEC3",
            "max": [
                0.06932946294546128,
                0.21488216519355775,
                0.04067215695977211
            ],
            "min": [
                -0.06932946294546128,
                0.025690879672765733,
                -0.04067215695977211
            ]
        },
        {
            "bufferView": 5,
            "componentType": 5126,
            "count": 370292,
            "type": "VEC3"
        },
        {
            "bufferView": 6,
            "componentType": 5126,
            "count": 370292,
            "type": "VEC2"
        },
        {
            "bufferView": 7,
            "componentType": 5125,
            "count": 555438,
            "type": "SCALAR",
            "max": [
                370291.0
            ],
            "min": [
                0.0
            ]
        }
    ],
    "bufferViews": [
        {
            "buffer": 0,
            "byteOffset": 0,
            "byteLength": 158208,
            "target": 34962
        },
        {
            "buffer": 0,
            "byteOffset": 158208,
            "byteLength": 158208,
            "target": 34962
        },
        {
            "buffer": 0,
            "byteOffset": 316416,
            "byteLength": 105472,
            "target": 34962
        },
        {
            "buffer": 0,
            "byteOffset": 421888,
            "byteLength": 79104,
            "target": 34963
        },
        {
            "buffer": 0,
            "byteOffset": 500992,
            "byteLength": 4443504,
            "target": 34962
        },
        {
            "buffer": 0,
            "byteOffset": 4944496,
            "byteLength": 4443504,
            "target": 34962
        },
        {
            "buffer": 0,
            "byteOffset": 9388000,
            "byteLength": 2962336,
            "target": 34962
        },
        {
            "buffer": 0,
            "byteOffset": 12350336,
            "byteLength": 2221752,
            "target": 34963
        }
    ],
    "buffers": [
        {
            "byteLength": 14572088,
            "uri": "apple_binary.bin"
        }
    ],
    "cameras": [
        {
            "perspective": {
                "znear": 0.000010000000656873454,
                "yfov": 0.6024156808853149,
                "zfar": 2.0,
                "aspectRatio": 1.3333333730697632
            },
            "type": "perspective",
            "name": "render_camera"
        }
    ],
    "images": [
        {
            "name": "image_image",
            "uri": "apple_images/image_image.png",
            "mimeType": "image/png"
        },
        {
            "name": "image",
            "uri": "apple_images/image.png",
            "mimeType": "image/png"
        },
        {
            "name": "flower_MatSG_normal",
            "uri": "apple_images/flower_MatSG_normal.png",
            "mimeType": "image/png"
        }
    ],
    "materials": [
        {
            "pbrMetallicRoughness": {
                "baseColorFactor": [
                    1.0,
                    1.0,
                    1.0,
                    0.25
                ],
                "metallicFactor": 0.0,
                "roughnessFactor": 0.0
            },
            "alphaMode": "BLEND",
            "name": "glass_mat",
            "doubleSided": true
        },
        {
            "pbrMetallicRoughness": {
                "baseColorTexture": {
                    "index": 0
                },
                "metallicFactor": 0.0,
                "metallicRoughnessTexture": {
                    "index": 1
                }
            },
            "normalTexture": {
                "index": 2
            },
            "alphaMode": "MASK",
            "name": "flower_mat",
            "doubleSided": true
        }
    ],
    "meshes": [
        {
            "name": "glass",
            "primitives": [
                {
                    "attributes": {
                        "TEXCOORD_0": 2,
                        "NORMAL": 1,
                        "POSITION": 0
                    },
                    "indices": 3,
                    "material": 0
                }
            ]
        },
        {
            "name": "flower",
            "primitives": [
                {
                    "attributes": {
                        "POSITION": 4,
                        "NORMAL": 5,
                        "TEXCOORD_0": 6
                    },
                    "indices": 7,
                    "material": 1
                }
            ]
        }
    ],
    "nodes": [
        {
            "translation": [
                0.5,
                0.29999998211860659,
                0.5
            ],
            "rotation": [
                -0.12059047073125839,
                0.379409521818161,
                0.04995020851492882,
                0.9159756302833557
            ],
            "scale": [
                1.0,
                1.0,
                0.9999999403953552
            ],
            "camera": 0,
            "name": "render_camera_n3d"
        },
        {
            "children": [
                2,
                3
            ],
            "name": "apple_flower_in_a_glass"
        },
        {
            "mesh": 0,
            "name": "glass"
        },
        {
            "mesh": 1,
            "name": "flower"
        }
    ],
    "samplers": [
        {},
        {},
        {}
    ],
    "scenes": [
        {
            "nodes": [
                0,
                1
            ],
            "name": "scene"
        }
    ],
    "textures": [
        {
            "name": "image_image",
            "sampler": 0,
            "source": 0
        },
        {
            "name": "image",
            "sampler": 1,
            "source": 1
        },
        {
            "name": "flower_mat::normal::image",
            "sampler": 2,
            "source": 2
        }
    ],
    "scene": 0
}