{
    "asset": {
        "copyright": "2020 (c) Adobe Inc.",
        "generator": "Adobe Dimension - 5769982f30ff13dfba89076b81240843d8e6af81",
        "version": "2.0"
    },
    "accessors": [
        {
            "bufferView": 0,
            "componentType": 5126,
            "count": 2779,
            "type": "VEC3",
            "max": [
                0.03500000014901161,
                0.21035774052143098,
                0.03500000014901161
            ],
            "min": [
                -0.03500000014901161,
                0.0,
                -0.03500000014901161
            ]
        },
        {
            "bufferView": 1,
            "componentType": 5126,
            "count": 2779,
            "type": "VEC3"
        },
        {
            "bufferView": 2,
            "componentType": 5126,
            "count": 2779,
            "type": "VEC2"
        },
        {
            "bufferView": 3,
            "componentType": 5125,
            "count": 15252,
            "type": "SCALAR",
            "max": [
                2778.0
            ],
            "min": [
                0.0
            ]
        },
        {
            "bufferView": 4,
            "componentType": 5126,
            "count": 14112,
            "type": "VEC3",
            "max": [
                0.09999999403953552,
                0.19999998807907105,
                0.09999999403953552
            ],
            "min": [
                -0.09999999403953552,
                0.0,
                -0.09999999403953552
            ]
        },
        {
            "bufferView": 5,
            "componentType": 5126,
            "count": 14112,
            "type": "VEC3"
        },
        {
            "bufferView": 6,
            "componentType": 5126,
            "count": 14112,
            "type": "VEC2"
        },
        {
            "bufferView": 7,
            "componentType": 5125,
            "count": 288,
            "type": "SCALAR",
            "max": [
                14092.0
            ],
            "min": [
                1032.0
            ]
        },
        {
            "bufferView": 8,
            "componentType": 5125,
            "count": 13824,
            "type": "SCALAR",
            "max": [
                14111.0
            ],
            "min": [
                0.0
            ]
        },
        {
            "bufferView": 9,
            "componentType": 5126,
            "count": 21816,
            "type": "VEC3",
            "max": [
                0.037520598620176318,
                0.27999991178512576,
                0.04754119738936424
            ],
            "min": [
                -0.018177200108766557,
                0.0,
                -0.03928209841251373
            ]
        },
        {
            "bufferView": 10,
            "componentType": 5126,
            "count": 21816,
            "type": "VEC3"
        },
        {
            "bufferView": 11,
            "componentType": 5126,
            "count": 21816,
            "type": "VEC2"
        },
        {
            "bufferView": 12,
            "componentType": 5125,
            "count": 32724,
            "type": "SCALAR",
            "max": [
                21815.0
            ],
            "min": [
                0.0
            ]
        }
    ],
    "bufferViews": [
        {
            "buffer": 0,
            "byteOffset": 0,
            "byteLength": 33348,
            "target": 34962
        },
        {
            "buffer": 0,
            "byteOffset": 33348,
            "byteLength": 33348,
            "target": 34962
        },
        {
            "buffer": 0,
            "byteOffset": 66696,
            "byteLength": 22232,
            "target": 34962
        },
        {
            "buffer": 0,
            "byteOffset": 88928,
            "byteLength": 61008,
            "target": 34963
        },
        {
            "buffer": 0,
            "byteOffset": 149936,
            "byteLength": 169344,
            "target": 34962
        },
        {
            "buffer": 0,
            "byteOffset": 319280,
            "byteLength": 169344,
            "target": 34962
        },
        {
            "buffer": 0,
            "byteOffset": 488624,
            "byteLength": 112896,
            "target": 34962
        },
        {
            "buffer": 0,
            "byteOffset": 601520,
            "byteLength": 1152,
            "target": 34963
        },
        {
            "buffer": 0,
            "byteOffset": 602672,
            "byteLength": 55296,
            "target": 34963
        },
        {
            "buffer": 0,
            "byteOffset": 657968,
            "byteLength": 261792,
            "target": 34962
        },
        {
            "buffer": 0,
            "byteOffset": 919760,
            "byteLength": 261792,
            "target": 34962
        },
        {
            "buffer": 0,
            "byteOffset": 1181552,
            "byteLength": 174528,
            "target": 34962
        },
        {
            "buffer": 0,
            "byteOffset": 1356080,
            "byteLength": 130896,
            "target": 34963
        }
    ],
    "buffers": [
        {
            "byteLength": 1486976,
            "uri": "kalla_binary.bin"
        }
    ],
    "cameras": [
        {
            "perspective": {
                "znear": 0.000010000000656873454,
                "yfov": 0.6024156808853149,
                "zfar": 2.0,
                "aspectRatio": 1.3333333730697632
            },
            "type": "perspective",
            "name": "render_camera"
        }
    ],
    "images": [
        {
            "name": "plant_Mat_baseColor",
            "uri": "kalla_images/plant_Mat_baseColor.jpg",
            "mimeType": "image/jpeg"
        },
        {
            "name": "plant_Mat_normal",
            "uri": "kalla_images/plant_Mat_normal.png",
            "mimeType": "image/png"
        }
    ],
    "materials": [
        {
            "pbrMetallicRoughness": {
                "baseColorFactor": [
                    1.0,
                    1.0,
                    1.0,
                    0.25
                ],
                "metallicFactor": 0.0,
                "roughnessFactor": 0.0
            },
            "alphaMode": "BLEND",
            "name": "glass_Mat",
            "doubleSided": true
        },
        {
            "pbrMetallicRoughness": {
                "baseColorFactor": [
                    0.6307569742202759,
                    0.6307569742202759,
                    0.6307569742202759,
                    1.0
                ],
                "metallicFactor": 0.0,
                "roughnessFactor": 0.4000000059604645
            },
            "name": "初期設定マテリアル",
            "doubleSided": true
        },
        {
            "pbrMetallicRoughness": {
                "baseColorTexture": {
                    "index": 0
                },
                "metallicFactor": 0.0,
                "roughnessFactor": 0.3803921639919281
            },
            "normalTexture": {
                "index": 1
            },
            "name": "plant_Mat",
            "doubleSided": true
        }
    ],
    "meshes": [
        {
            "name": "b_vase_2_170 2",
            "primitives": [
                {
                    "attributes": {
                        "POSITION": 0,
                        "NORMAL": 1,
                        "TEXCOORD_0": 2
                    },
                    "indices": 3,
                    "material": 0
                }
            ]
        },
        {
            "name": "PROCEDURAL_MESHES_CYLINDER#",
            "primitives": [
                {
                    "attributes": {
                        "POSITION": 4,
                        "NORMAL": 5,
                        "TEXCOORD_0": 6
                    },
                    "indices": 7,
                    "material": 1
                },
                {
                    "attributes": {
                        "TEXCOORD_0": 6,
                        "NORMAL": 5,
                        "POSITION": 4
                    },
                    "indices": 8,
                    "material": 0
                }
            ]
        },
        {
            "name": "callas_05",
            "primitives": [
                {
                    "attributes": {
                        "POSITION": 9,
                        "NORMAL": 10,
                        "TEXCOORD_0": 11
                    },
                    "indices": 12,
                    "material": 2
                }
            ]
        }
    ],
    "nodes": [
        {
            "translation": [
                0.4861113131046295,
                0.29999998211860659,
                0.4744386672973633
            ],
            "rotation": [
                -0.12059047073125839,
                0.379409521818161,
                0.04995020851492882,
                0.9159756302833557
            ],
            "scale": [
                1.0,
                1.0,
                0.9999999403953552
            ],
            "camera": 0,
            "name": "render_camera_n3d"
        },
        {
            "translation": [
                -0.013888680376112461,
                0.0,
                -0.02556132897734642
            ],
            "scale": [
                0.6228039860725403,
                0.6228039860725403,
                0.6228039860725403
            ],
            "mesh": 0,
            "name": "b_vase_2_170 2"
        },
        {
            "children": [
                3,
                4,
                5
            ],
            "translation": [
                -0.0018337774090468884,
                0.0,
                -0.00018172740237787366
            ],
            "name": "msan"
        },
        {
            "translation": [
                -0.01205490343272686,
                0.0,
                -0.02537960186600685
            ],
            "scale": [
                0.6228039860725403,
                0.6228039860725403,
                0.6228039860725403
            ],
            "mesh": 0,
            "name": "b_vase_2_170 2"
        },
        {
            "translation": [
                -0.01205490343272686,
                0.0,
                -0.02537960186600685
            ],
            "scale": [
                0.20000000298023225,
                0.20000000298023225,
                0.20000000298023225
            ],
            "mesh": 1,
            "name": "円柱"
        },
        {
            "children": [
                6
            ],
            "name": "kalla"
        },
        {
            "mesh": 2,
            "name": "callas_05"
        }
    ],
    "samplers": [
        {},
        {}
    ],
    "scenes": [
        {
            "nodes": [
                0,
                1,
                2
            ],
            "name": "scene"
        }
    ],
    "textures": [
        {
            "name": "tmp_image_pie_4c5b_912c_e620",
            "sampler": 0,
            "source": 0
        },
        {
            "name": "tmp_image_pie_51e3_85e9_9b9b",
            "sampler": 1,
            "source": 1
        }
    ],
    "scene": 0
}