{
    "asset": {
        "copyright": "2020 (c) Adobe Inc.",
        "generator": "Adobe Dimension - 5769982f30ff13dfba89076b81240843d8e6af81",
        "version": "2.0"
    },
    "accessors": [
        {
            "bufferView": 0,
            "componentType": 5126,
            "count": 233192,
            "type": "VEC3",
            "max": [
                0.49312296509742739,
                1.7712538242340088,
                0.5030652284622192
            ],
            "min": [
                -0.49312296509742739,
                0.0,
                -0.5030652284622192
            ]
        },
        {
            "bufferView": 1,
            "componentType": 5126,
            "count": 233192,
            "type": "VEC3"
        },
        {
            "bufferView": 2,
            "componentType": 5126,
            "count": 233192,
            "type": "VEC2"
        },
        {
            "bufferView": 3,
            "componentType": 5125,
            "count": 349494,
            "type": "SCALAR",
            "max": [
                233191.0
            ],
            "min": [
                0.0
            ]
        }
    ],
    "bufferViews": [
        {
            "buffer": 0,
            "byteOffset": 0,
            "byteLength": 2798304,
            "target": 34962
        },
        {
            "buffer": 0,
            "byteOffset": 2798304,
            "byteLength": 2798304,
            "target": 34962
        },
        {
            "buffer": 0,
            "byteOffset": 5596608,
            "byteLength": 1865536,
            "target": 34962
        },
        {
            "buffer": 0,
            "byteOffset": 7462144,
            "byteLength": 1397976,
            "target": 34963
        }
    ],
    "buffers": [
        {
            "byteLength": 8860120,
            "uri": "plant3_binary.bin"
        }
    ],
    "cameras": [
        {
            "perspective": {
                "znear": 0.000010222155651717913,
                "yfov": 0.6024156808853149,
                "zfar": 2.0,
                "aspectRatio": 1.3333333730697632
            },
            "type": "perspective",
            "name": "render_camera"
        }
    ],
    "images": [
        {
            "name": "plant_planter_large_Mat_baseColor",
            "uri": "plant3_images/plant_planter_large_Mat_baseColor.jpg",
            "mimeType": "image/jpeg"
        },
        {
            "name": "image_image",
            "uri": "plant3_images/image_image.png",
            "mimeType": "image/png"
        },
        {
            "name": "plant_planter_large_Mat_normal",
            "uri": "plant3_images/plant_planter_large_Mat_normal.png",
            "mimeType": "image/png"
        }
    ],
    "materials": [
        {
            "pbrMetallicRoughness": {
                "baseColorTexture": {
                    "index": 0
                },
                "metallicRoughnessTexture": {
                    "index": 1
                }
            },
            "normalTexture": {
                "index": 2
            },
            "name": "plant_planter_large_MatSG",
            "doubleSided": true
        }
    ],
    "meshes": [
        {
            "name": "plant_planter_large",
            "primitives": [
                {
                    "attributes": {
                        "POSITION": 0,
                        "NORMAL": 1,
                        "TEXCOORD_0": 2
                    },
                    "indices": 3,
                    "material": 0
                }
            ]
        }
    ],
    "nodes": [
        {
            "translation": [
                0.5,
                0.29999998211860659,
                0.5
            ],
            "rotation": [
                -0.12059047073125839,
                0.379409521818161,
                0.04995020851492882,
                0.9159756302833557
            ],
            "scale": [
                1.0,
                1.0,
                0.9999999403953552
            ],
            "camera": 0,
            "name": "render_camera_n3d"
        },
        {
            "scale": [
                0.22582870721817017,
                0.22582870721817017,
                0.22582870721817017
            ],
            "mesh": 0,
            "name": "plant_planter_large"
        }
    ],
    "samplers": [
        {},
        {},
        {}
    ],
    "scenes": [
        {
            "nodes": [
                0,
                1
            ],
            "name": "scene"
        }
    ],
    "textures": [
        {
            "name": "plant_planter_large_MatSG::baseColor::image",
            "sampler": 0,
            "source": 0
        },
        {
            "name": "image_image",
            "sampler": 1,
            "source": 1
        },
        {
            "name": "plant_planter_large_MatSG::normal::image",
            "sampler": 2,
            "source": 2
        }
    ],
    "scene": 0
}